# AST/ASF file generated using VICON BodyLanguage
# -----------------------------------------------
:version 1.10
:name VICON
:units
  mass 1.0
  length 0.45
  angle deg
:documentation
   .ast/.asf automatically generated from VICON data using
   VICON BodyBuilder and BodyLanguage model FoxedUp or BRILLIANT.MOD
:root
   order TX TY TZ RX RY RZ
   axis XYZ
   position 0 0 0  
   orientation 0 0 0 
:bonedata
  begin
     id 1 
     name lhipjoint
     direction 0.62366 -0.717238 0.310833 
     length 2.53602 
     axis 0 0 0  XYZ
  end
  begin
     id 2 
     name lfemur
     direction 0.34202 -0.939693 0  
     length 7.40817  
     axis 0 0 20  XYZ
    dof rx ry rz
    limits (-160.0 20.0)
           (-70.0 70.0)
           (-60.0 70.0)
  end
  begin
     id 3 
     name ltibia
     direction 0.34202 -0.939693 0   
     length 7.7045   
     axis 0 0 20   XYZ
    dof rx
    limits (-10.0 170.0)
  end
  begin
     id 4 
     name lfoot
     direction 0.0673888 -0.185149 0.980397   
     length 2.09456   
     axis -90 7.62852e-016 20   XYZ
    dof rx rz
    limits (-45.0 90.0)
           (-70.0 20.0)
  end
  begin
     id 5 
     name ltoes
     direction 1.53575e-011 -4.21994e-011 1   
     length 1.05543   
     axis -90 7.62852e-016 20   XYZ
    dof rx
    limits (-90.0 20.0)
  end
  begin
     id 6 
     name rhipjoint
     direction -0.489018 -0.800347 0.346851   
     length 2.27268  
     axis 0 0 0  XYZ 
  end
  begin
     id 7 
     name rfemur
     direction -0.34202 -0.939693 0   
     length 7.55487   
     axis 0 0 -20   XYZ
    dof rx ry rz
    limits (-160.0 20.0)
           (-70.0 70.0)
           (-70.0 60.0)
  end
  begin
     id 8 
     name rtibia
     direction -0.34202 -0.939693 0   
     length 7.78969   
     axis 0 0 -20   XYZ
    dof rx
    limits (-10.0 170.0)
 end
 begin
     id 9 
     name rfoot
     direction -0.0859318 -0.236096 0.967923   
     length 2.19143  
     axis -90 -7.62852e-016 -20   XYZ
    dof rx rz
    limits (-45.0 90.0)
           (-20.0 70.0)
  end
  begin
     id 10 
     name rtoes
     direction -1.53538e-011 -4.21989e-011 1   
     length 1.09845   
     axis -90 -7.62852e-016 -20   XYZ
    dof rx
    limits (-90.0 20.0)
  end
  begin
     id 11 
     name lowerback
     direction -0.00762546 0.998978 -0.0445553   
     length 1.98161   
     axis 0 0 0   XYZ
    dof rx ry rz
    limits (-20.0 45.0)
           (-30.0 30.0)
           (-30.0 30.0)
  end
  begin
     id 12 
     name upperback
     direction 0.0422361 0.998867 -0.0219156   
     length 1.97558   
     axis 0 0 0   XYZ
    dof rx ry rz
    limits (-20.0 45.0)
           (-30.0 30.0)
           (-30.0 30.0)
  end
  begin
     id 13 
     name thorax
     direction 0.0442465 0.999021 7.47603e-005   
     length 1.97799   
     axis 0 0 0   XYZ
    dof rx ry rz
    limits (-20.0 45.0)
           (-30.0 30.0)
           (-30.0 30.0)
  end
  begin
     id 14 
     name lowerneck
     direction 0.00312169 0.984641 0.174564   
     length 1.78995   
     axis 0 0 0   XYZ
    dof rx ry rz
    limits (-20.0 45.0)
           (-30.0 30.0)
           (-30.0 30.0)
  end
  begin
     id 15 
     name upperneck
     direction -0.0383028 0.985255 -0.166749   
     length 1.83053   
     axis 0 0 0   XYZ
    dof rx ry rz
    limits (-20.0 45.0)
           (-30.0 30.0)
           (-30.0 30.0)
  end
  begin
     id 16
     name head
     direction -0.0129546 0.997059 -0.0755386  
     length 1.84088  
     axis 0 0 0   XYZ
    dof rx ry rz
    limits (-20.0 45.0)
           (-30.0 30.0)
           (-30.0 30.0)
  end
  begin
     id 17 
     name lclavicle
     direction 0.912857 0.370519 -0.171488  
     length 3.51279  
     axis 0 0 0   XYZ
    dof ry rz
    limits (-20.0 10.0)
           (0.0 20.0)
  end
  begin
     id 18 
     name lhumerus
     direction 1 -4.48962e-011 3.64361e-027   
     length 4.95663   
     axis 180 -30 -90   XYZ
    dof rx ry rz
    limits (-60.0 90.0)
           (-90.0 90.0)
           (-90.0 90.0)
  end
  begin
     id 19
     name lradius
     direction 1 -4.48974e-011 5.97202e-027   
     length 3.38177   
     axis 180 -30 -90   XYZ
    dof rx
    limits (-10.0 170.0)
  end
  begin
     id 20
     name lwrist
     direction 1 -4.4896e-011 9.83288e-027   
     length 1.69088   
     axis -9.31221e-015 90 90   XYZ
    dof ry
    limits (-180.0 0.0)
 end
  begin
     id 21 
     name lhand
     direction 1 -4.4902e-011 1.96551e-026   
     length 0.662909   
     axis -1.25475e-014 90 90   XYZ
    dof rx rz
    limits (-90.0 90.0)
           (-45.0 45.0)
  end
  begin
     id 22 
     name lfingers
     direction 1 -4.48971e-011 3.93277e-026   
     length 0.534454   
     axis -2.50945e-014 90 90   XYZ
    dof rx
    limits (0.0 90.0)
  end
  begin
     id 23
     name lthumb
     direction 0.707107 -6.34933e-011 0.707107   
     length 0.767373   
     axis -90 45 -4.80359e-014   XYZ
    dof rx rz
    limits (-45.0 45.0)
           (-45.0 45.0)
  end
  begin
     id 24 
     name rclavicle
     direction -0.900919 0.395364 -0.178976   
     length 3.40627  
     axis 0 0 0   XYZ 
    dof ry rz
    limits (-10.0 20.0)
           (-20.0 0.0)
  end
  begin
     id 25 
     name rhumerus
     direction -1 -4.48969e-011 1.03875e-027  
     length 5.08365   
     axis 180 30 90   XYZ
    dof rx ry rz
    limits (-90.0 60.0)
           (-90.0 90.0)
           (-90.0 90.0)
  end
  begin
     id 26 
     name rradius
     direction -1 -4.48951e-011 5.02733e-027   
     length 3.35984   
     axis 180 30 90   XYZ
    dof rx
    limits (-10.0 170.0)
  end
  begin
     id 27 
     name rwrist
     direction -1 -4.49011e-011 9.82828e-027   
     length 1.67992   
     axis -9.31221e-015 -90 -90   XYZ
    dof ry
    limits (-180.0 0.0)
  end
  begin
     id 28
     name rhand
     direction -1 -4.48894e-011 1.96774e-026   
     length 0.820764   
     axis -1.25475e-014 -90 -90   XYZ
    dof rx rz
    limits (-90.0 90.0)
           (-45.0 45.0)
  end
  begin
     id 29
     name rfingers
     direction -1 -4.49095e-011 3.92833e-026   
     length 0.661721   
     axis -2.50945e-014 -90 -90   XYZ
    dof rx
    limits (0.0 90.0)
  end
  begin
     id 30
     name rthumb
     direction -0.707107 -6.34881e-011 0.707107   
     length 0.950103   
     axis -90 -45 4.80359e-014   XYZ
    dof rx rz
    limits (-45.0 45.0)
           (-45.0 45.0)
  end
:hierarchy
  begin
    root lhipjoint rhipjoint lowerback
    lhipjoint lfemur
    lfemur ltibia
    ltibia lfoot
    lfoot ltoes
    rhipjoint rfemur
    rfemur rtibia
    rtibia rfoot
    rfoot rtoes
    lowerback upperback
    upperback thorax
    thorax lowerneck lclavicle rclavicle
    lowerneck upperneck
    upperneck head
    lclavicle lhumerus
    lhumerus lradius
    lradius lwrist
    lwrist lhand lthumb
    lhand lfingers
    rclavicle rhumerus
    rhumerus rradius
    rradius rwrist
    rwrist rhand rthumb
    rhand rfingers
  end

#!OML:ASF I:\golf\golf\golf 2\Subject 1\2002-09-07\Subject1.ASF
:FULLY-SPECIFIED
:DEGREES
123
root -7.08725 17.6322 1.94197 -134.112 86.8437 -149.748
lowerback 1.82915 1.70735 -1.69347
upperback 2.09351 2.3145 4.2205
thorax 0.886468 1.14455 5.28317
lowerneck -14.1218 -2.74452 0.272351
upperneck 42.5198 -0.0851451 -3.81056
head 18.3376 0.241404 -1.62159
rclavicle 9.54166e-015 3.81667e-014
rhumerus -7.04848 -1.11893 -101.667
rradius 23.3306
rwrist -44.4245
rhand -15.8769 -13.0974
rfingers 7.12502
rthumb 10.3189 -42.8243
lclavicle 9.54166e-015 3.81667e-014
lhumerus -8.46512 -39.9612 109.264
lradius 22.2785
lwrist 27.6187
lhand -10.9016 71.9306
lfingers 7.12502
lthumb -164.885 78.6414
rfemur -29.511 -4.73091 9.43883
rtibia 32.4631
rfoot -11.0191 -9.14099
rtoes -9.20919
lfemur -30.2001 8.03094 -9.92343
ltibia 32.0785
lfoot -13.2669 -6.18046
ltoes -20.7989
124
root -7.08623 17.6317 1.93478 -136.076 86.8189 -151.69
lowerback 1.82282 1.74062 -1.56867
upperback 2.10408 2.3588 4.14655
thorax 0.90391 1.16762 5.13432
lowerneck -14.107 -2.78751 0.304925
upperneck 42.4954 -0.179119 -3.77776
head 18.3138 0.214141 -1.62837
rclavicle -2.78299e-015 4.29375e-014
rhumerus -7.06126 -1.13181 -101.685
rradius 23.4284
rwrist -44.6427
rhand -16.2385 -13.0775
rfingers 7.12502
rthumb 9.9701 -42.8214
lclavicle -2.78299e-015 4.29375e-014
lhumerus -8.47357 -40.5452 109.206
lradius 22.3945
lwrist 28.0851
lhand -10.9007 71.9309
lfingers 7.12502
lthumb -164.884 78.6411
rfemur -29.4921 -4.86284 9.33654
rtibia 32.5229
rfoot -11.0788 -9.0615
rtoes -9.34894
lfemur -30.1966 7.87498 -10.0117
ltibia 32.0831
lfoot -13.271 -6.1243
ltoes -20.7102
125
root -7.09351 17.6291 1.93731 -138.16 86.6773 -153.908
lowerback 1.79243 1.72287 -1.58906
upperback 2.03577 2.33595 4.1672
thorax 0.851296 1.15762 5.16733
lowerneck -14.1054 -2.82895 0.325202
upperneck 42.4796 -0.218183 -3.85226
head 18.3016 0.1925 -1.67388
rclavicle 1.74931e-014 -2.06736e-014
rhumerus -7.06899 -1.25062 -101.72
rradius 23.4728
rwrist -44.6346
rhand -16.4271 -13.0198
rfingers 7.12502
rthumb 9.78811 -42.7723
lclavicle 1.74931e-014 -2.06736e-014
lhumerus -8.49648 -41.1787 109.196
lradius 22.5761
lwrist 28.8794
lhand -10.8962 71.607
lfingers 7.12502
lthumb -164.88 78.9653
rfemur -29.6299 -4.95455 9.33229
rtibia 32.579
rfoot -11.1558 -9.13976
rtoes -8.87704
lfemur -30.4343 7.95803 -10.0766
ltibia 32.0924
lfoot -13.2288 -6.37284
ltoes -20.6944
126
root -7.0979 17.627 1.93643 -139.05 86.5516 -154.88
lowerback 1.78081 1.70426 -1.54633
upperback 1.98707 2.31327 4.20621
thorax 0.810026 1.14833 5.18349
lowerneck -14.0838 -2.86444 0.330889
upperneck 42.4642 -0.233567 -3.9461
head 18.2854 0.175616 -1.7211
rclavicle 3.06128e-014 5.24792e-014
rhumerus -7.06987 -1.54708 -101.783
rradius 23.4494
rwrist -44.4877
rhand -16.5031 -12.8701
rfingers 7.12502
rthumb 9.71478 -42.6261
lclavicle 3.06128e-014 5.24792e-014
lhumerus -8.57607 -41.6147 109.239
lradius 22.7341
lwrist 29.3206
lhand -11.1442 71.5456
lfingers 7.12502
lthumb -165.118 79.0089
rfemur -29.7188 -5.0244 9.35994
rtibia 32.6301
rfoot -11.2711 -9.13564
rtoes -7.39871
lfemur -30.596 8.02483 -10.0953
ltibia 32.1148
lfoot -13.2032 -6.5105
ltoes -21.0576
127
root -7.0963 17.6266 1.93038 -139.308 86.5307 -155.078
lowerback 1.79418 1.71193 -1.39782
upperback 2.02163 2.32434 4.1658
thorax 0.844121 1.15468 5.05686
lowerneck -14.079 -2.86841 0.357207
upperneck 42.4445 -0.252105 -3.94441
head 18.2707 0.172185 -1.72793
rclavicle 2.5842e-014 3.10104e-014
rhumerus -7.08288 -1.5659 -101.871
rradius 23.545
rwrist -44.8463
rhand -16.555 -12.7946
rfingers 7.12502
rthumb 9.66473 -42.5529
lclavicle 2.5842e-014 3.10104e-014
lhumerus -8.57561 -41.7598 109.152
lradius 22.7798
lwrist 29.1913
lhand -11.2044 71.5206
lfingers 7.12502
lthumb -165.176 79.0296
rfemur -29.6562 -5.00915 9.31679
rtibia 32.6693
rfoot -11.2845 -9.15325
rtoes -7.5906
lfemur -30.5496 7.9789 -10.1121
ltibia 32.1436
lfoot -13.2545 -6.44798
ltoes -21.4585
128
root -7.09723 17.6255 1.92737 -140.227 86.4758 -155.968
lowerback 1.79674 1.7054 -1.31057
upperback 2.05023 2.31586 4.13747
thorax 0.877322 1.15062 4.97837
lowerneck -14.0921 -2.86349 0.369791
upperneck 42.4231 -0.263016 -3.92062
head 18.2605 0.172038 -1.72072
rclavicle 1.47101e-014 -3.97569e-014
rhumerus -7.11341 -1.34012 -101.894
rradius 23.7261
rwrist -45.3764
rhand -16.4428 -12.8525
rfingers 7.12502
rthumb 9.77296 -42.6058
lclavicle 1.47101e-014 -3.97569e-014
lhumerus -8.4474 -41.6458 109.021
lradius 22.694
lwrist 28.7694
lhand -11.203 71.5314
lfingers 7.12502
lthumb -165.175 79.0189
rfemur -29.6096 -5.07181 9.28855
rtibia 32.6813
rfoot -11.1984 -9.23122
rtoes -8.72208
lfemur -30.5636 7.96142 -10.1538
ltibia 32.1693
lfoot -13.3084 -6.49808
ltoes -21.6524
129
root -7.0993 17.6245 1.9268 -141.218 86.426 -156.966
lowerback 1.79423 1.70697 -1.30297
upperback 2.05245 2.3182 4.14204
thorax 0.880896 1.15188 4.97894
lowerneck -14.0818 -2.8747 0.356437
upperneck 42.3946 -0.277456 -3.9235
head 18.2399 0.163388 -1.72129
rclavicle -2.62396e-014 -4.45278e-014
rhumerus -7.18037 -1.07403 -101.869
rradius 23.882
rwrist -45.6389
rhand -16.4828 -12.849
rfingers 7.12502
rthumb 9.73432 -42.604
lclavicle -2.62396e-014 -4.45278e-014
lhumerus -8.33402 -41.5125 108.967
lradius 22.5915
lwrist 28.4071
lhand -11.3589 71.6329
lfingers 7.12502
lthumb -165.325 78.9064
rfemur -29.6077 -5.22102 9.28581
rtibia 32.6824
rfoot -11.1711 -9.18579
rtoes -8.72955
lfemur -30.6124 7.98755 -10.2023
ltibia 32.1846
lfoot -13.3059 -6.64298
ltoes -21.1522
130
root -7.09916 17.6235 1.92595 -142.542 86.4622 -158.265
lowerback 1.8062 1.73657 -1.34958
upperback 2.06715 2.3566 4.12424
thorax 0.884566 1.17022 4.98609
lowerneck -14.0689 -2.90297 0.323809
upperneck 42.3843 -0.314144 -3.91175
head 18.229 0.145837 -1.71583
rclavicle 3.97569e-015 -2.3059e-014
rhumerus -7.24574 -0.901435 -101.852
rradius 24.044
rwrist -45.8599
rhand -16.894 -12.9029
rfingers 7.12502
rthumb 9.33764 -42.6761
lclavicle 3.97569e-015 -2.3059e-014
lhumerus -8.30333 -41.5437 108.973
lradius 22.5676
lwrist 28.3277
lhand -11.4451 71.5906
lfingers 7.12502
lthumb -165.408 78.9427
rfemur -29.5709 -5.33193 9.20006
rtibia 32.6917
rfoot -11.2281 -9.08272
rtoes -8.6996
lfemur -30.5921 8.02611 -10.3142
ltibia 32.2008
lfoot -13.3422 -6.71292
ltoes -21.0023
131
root -7.09848 17.6211 1.92435 -143.437 86.4934 -159.116
lowerback 1.81411 1.75947 -1.39671
upperback 2.09613 2.38651 4.13202
thorax 0.904982 1.18405 5.02094
lowerneck -14.0556 -2.92761 0.287588
upperneck 42.3717 -0.341601 -3.90794
head 18.2172 0.130012 -1.71177
rclavicle 2.34566e-014 2.3059e-014
rhumerus -7.26576 -0.885517 -101.843
rradius 24.1663
rwrist -45.9459
rhand -17.342 -13.0632
rfingers 7.12502
rthumb 8.9053 -42.8553
lclavicle 2.34566e-014 2.3059e-014
lhumerus -8.24796 -41.8544 108.899
lradius 22.6493
lwrist 28.5673
lhand -11.4935 71.4125
lfingers 7.12502
lthumb -165.455 79.1174
rfemur -29.5173 -5.4052 9.12707
rtibia 32.6949
rfoot -11.2841 -8.98867
rtoes -8.74301
lfemur -30.5602 8.10863 -10.4038
ltibia 32.2343
lfoot -13.3723 -6.82639
ltoes -21.3365
132
root -7.09894 17.619 1.92248 -143.731 86.4614 -159.401
lowerback 1.79091 1.74027 -1.39611
upperback 2.11557 2.36119 4.1627
thorax 0.939296 1.17079 5.05447
lowerneck -14.0524 -2.9033 0.304616
upperneck 42.3651 -0.28959 -3.95345
head 18.2143 0.147514 -1.72637
rclavicle 1.47101e-014 -2.06736e-014
rhumerus -7.23013 -1.00396 -101.883
rradius 24.1721
rwrist -45.7164
rhand -17.6427 -13.1207
rfingers 7.12502
rthumb 8.61517 -42.925
lclavicle 1.47101e-014 -2.06736e-014
lhumerus -8.12546 -41.838 108.769
lradius 22.6472
lwrist 28.4564
lhand -11.5445 71.3291
lfingers 7.12502
lthumb -165.504 79.1973
rfemur -29.5035 -5.5394 9.13609
rtibia 32.6857
rfoot -11.3057 -8.86946
rtoes -8.0436
lfemur -30.56 8.13721 -10.4019
ltibia 32.2823
lfoot -13.3584 -7.02609
ltoes -20.7286
133
root -7.09996 17.6179 1.92187 -144.046 86.4556 -159.714
lowerback 1.77464 1.74416 -1.37707
upperback 2.13109 2.36637 4.16414
thorax 0.964562 1.1731 5.04604
lowerneck -14.0532 -2.86491 0.34522
upperneck 42.3664 -0.21722 -4.00569
head 18.218 0.1769 -1.74473
rclavicle 3.85642e-014 4.77083e-014
rhumerus -7.17518 -1.2161 -101.935
rradius 24.1661
rwrist -45.4453
rhand -17.864 -13.1262
rfingers 7.12502
rthumb 8.40157 -42.9391
lclavicle 3.85642e-014 4.77083e-014
lhumerus -8.04441 -41.605 108.71
lradius 22.5602
lwrist 28.0051
lhand -11.4068 71.1644
lfingers 7.12502
lthumb -165.371 79.3716
rfemur -29.4978 -5.68807 9.1489
rtibia 32.6685
rfoot -11.2897 -8.77093
rtoes -7.79974
lfemur -30.5614 8.12789 -10.4104
ltibia 32.3322
lfoot -13.3775 -7.12349
ltoes -19.7797
134
root -7.10146 17.6177 1.92155 -143.419 86.445 -159.093
lowerback 1.7668 1.79442 -1.27659
upperback 2.13708 2.43448 4.15065
thorax 0.972962 1.20848 4.97414
lowerneck -14.077 -2.88718 0.345631
upperneck 42.3946 -0.258883 -3.97374
head 18.2397 0.16653 -1.73817
rclavicle 2.38542e-015 3.18055e-015
rhumerus -7.15546 -1.26139 -101.938
rradius 24.2344
rwrist -45.4898
rhand -18.0059 -13.1297
rfingers 7.12502
rthumb 8.26465 -42.948
lclavicle 2.38542e-015 3.18055e-015
lhumerus -8.04324 -41.6921 108.692
lradius 22.5526
lwrist 27.8117
lhand -11.2755 70.9368
lfingers 7.12502
lthumb -165.245 79.6084
rfemur -29.5037 -5.7263 9.21062
rtibia 32.6519
rfoot -11.2296 -8.77814
rtoes -8.52605
lfemur -30.6164 8.1757 -10.3981
ltibia 32.3665
lfoot -13.4074 -7.06021
ltoes -20.0306
